<?xml version="1.0" encoding="UTF-8"?><svg id="Layer_1" xmlns="http://www.w3.org/2000/svg" width="249.999999999999091" height="262.09569589680541" xmlns:xlink="http://www.w3.org/1999/xlink" viewBox="0 0 249.999999999999091 262.09569589680541"><defs><linearGradient id="linear-gradient" x1="-86.40293520567684" y1="-2549.507820345166692" x2="-85.829834527537969" y2="-2549.507820345166692" gradientTransform="translate(-103086.097425741550978 -12780.623166797551676) rotate(98.999936303660718) scale(40.769434127984447)" gradientUnits="userSpaceOnUse"><stop offset="0" stop-color="#3fb4e4"/><stop offset=".210799999237061" stop-color="#3fb4e4"/><stop offset=".809599990844727" stop-color="#2086b0"/><stop offset="1" stop-color="#2086b0"/></linearGradient><linearGradient id="linear-gradient-2" x1="-87.61733951932365" y1="-2547.269553914737116" x2="-87.044238724949537" y2="-2547.269553914737116" gradientTransform="translate(-102893.097425741550978 -12632.623166797551676) rotate(98.999936303660718) scale(40.769434127984447)" gradientUnits="userSpaceOnUse"><stop offset="0" stop-color="#3fb4e4"/><stop offset=".210799999237061" stop-color="#3fb4e4"/><stop offset=".809599990844727" stop-color="#2086b0"/><stop offset="1" stop-color="#2086b0"/></linearGradient><linearGradient id="linear-gradient-3" x1="-88.596386924326907" y1="-2548.297018658690831" x2="-88.023283994587473" y2="-2548.297018658690831" gradientTransform="translate(-103004.1241596408654 -12555.622386157148867) rotate(98.999958947093518) scale(40.769332399205389)" gradientUnits="userSpaceOnUse"><stop offset="0" stop-color="#3fb4e4"/><stop offset=".210799999237061" stop-color="#3fb4e4"/><stop offset=".809599990844727" stop-color="#2086b0"/><stop offset="1" stop-color="#2086b0"/></linearGradient><linearGradient id="linear-gradient-4" x1="-96.281739353920784" y1="-2554.966191737415102" x2="-95.708627863138645" y2="-2554.966191737415102" gradientTransform="translate(-135465.09761860355502 -16037.415916139521869) rotate(98.999968134443023) scale(53.413605996306146)" gradientUnits="userSpaceOnUse"><stop offset="0" stop-color="#3fb4e4"/><stop offset=".210799999237061" stop-color="#3fb4e4"/><stop offset=".809599990844727" stop-color="#2086b0"/><stop offset="1" stop-color="#2086b0"/></linearGradient><linearGradient id="linear-gradient-5" x1="-94.336448401391863" y1="-2556.810486269707326" x2="-93.76333692344997" y2="-2556.810486269707326" gradientTransform="translate(-135654.97261860355502 -16313.939353639521869) rotate(98.999968134443023) scale(53.413605996306146)" gradientUnits="userSpaceOnUse"><stop offset="0" stop-color="#3fb4e4"/><stop offset=".210799999237061" stop-color="#3fb4e4"/><stop offset=".809599990844727" stop-color="#2086b0"/><stop offset="1" stop-color="#2086b0"/></linearGradient></defs><path d="M22.153962748398044,90.2102269533043l.002961914488878-.001483218247813c.234117860870356-.127430153155728,11.907515763101401-6.444221527983245,30.398535387305856-12.709154528205545,18.491019624204455-6.26789039270443,43.798186796147093-12.472065708830996,71.262821526322114-12.470582490581364h.0162973127035c29.250158180624567.001483218247813,52.930352506444251,5.881150278493806,70.753082825673118,12.824727979386807,17.821265189008045,6.945060919140815,29.770270364998396,14.958482133675716,35.497319693909958,19.228947834735663l4.111915096733355-5.513673913481398c-6.103406915384767-4.551996803798829-18.593262199181481-12.907706805164707-37.112435838060264-20.123934387334884-18.516207202383157-7.217710800416171-43.073598505835434-13.295934659628983-73.249872734242672-13.29445144138117h-.017780530951313c-28.724131211287386.005928350985414-54.890732917938294,6.504974690069503-73.916674298962789,12.986240498203188-19.024458162776682,6.485715462878943-30.91419339492677,12.965498052762996-31.041628070088336,13.035136958320436l3.295457715168595,6.03822670858608Z" style="fill:#13cbe8;"/><path d="M127.555313261010269,17.625668043527185c.097792920231768.114097015944935,5.316595810756553,6.287154141904466,11.984566237892068,16.367643475645309,6.669453645383328,10.077527419252874,14.783634216646533,24.068408614264627,20.694421728063389,39.757398345225738,6.913949511984356,18.336918674622211,9.394433063836004,37.47251419985696,9.392949845588191,54.933701027068309,0,12.501702941754047-1.269869964836289,24.139539782083375-3.064310812802432,33.975537771231757-2.132270936040186,11.69266165143199-6.221955847077879,24.655193267697541-12.344644599689673,37.552535633152729-6.121205534363071,12.900308801950814-14.272412297749725,25.736875395283278-24.501083274101802,37.233951206249913l5.13879050124433,4.571260552997046c10.711729836560153-12.040874267242543,19.197836427579205-25.419792274657084,25.575367398473645-38.856483441641103,6.376065840673618-13.439657603483283,10.646522497720071-26.935641324342214,12.897342365454278-39.266936959797022,1.86257844724787-10.212373663649487,3.175443653254661-22.242865403153701,3.176908783475483-35.209846674166329-.001483218247813-18.105762728240734-2.559021766898695-38.048925369566859-9.834514770900569-57.359359767817296-6.217506192333531-16.490633018071094-14.660635630208162-30.971984642525058-21.555321392992482-41.371053881162879-6.896168981033043-10.396107324148034-12.251292290188758-16.702525215250716-12.317964759249662-16.781058908291016l-5.242507250454764,4.452711621304843Z" style="fill:#13cbe8;"/><path d="M22.379190343791379,95.38901912718211l.045934545626551-.139286855126556-.045934545626551.139286855126556.045934545626551-.139286855126556-.045934545626551.139286855126556c.148177120603577.048900982123087,10.144204410320526,3.390293242917323,24.044699732327899,11.341473555108678,13.903461758503909,7.949706137957037,31.699530325319756,20.506233890813746,47.517437949690247,38.940945485668635l.014814094454778.017780530950404.020746967447849.023713403943475c12.283886915594849,13.860493649373893,19.984647532206509,28.992340481832798,24.624072816525768,43.374402401786938,4.637942066071446,14.376147134988059,6.20120887963094,28.003992575719167,6.199734705395713,38.709789539287158.001483218248723,6.519793306531938-.583818216936379,11.965302488692032-1.36323131834979,15.743819064069612l6.736126114443323,1.386935678279769c.89647881485962-4.36529218479518,1.502518173478165-10.199024699415531,1.505484609974701-17.130754742349382-.001483218248723-11.365177915040476-1.644762421087762-25.662786834982398-6.531650008504585-40.819830289632591-4.8854043691681-15.152593799904935-13.030696347588673-31.167570482988594-26.022865196779094-45.825257764727212l-2.573835861352563,2.280448056642854,2.60939692325519-2.238954121748975c-16.606210991260014-19.348970940664003-35.20243962693803-32.394481382707454-49.660082369454358-40.627201841649367-14.462087875254838-8.231237240694099-24.800403951804583-11.652650934784106-24.964878385110751-11.708958964134581l-2.155970773964327,6.531650008504585Z" style="fill:#13cbe8;"/><path d="M193.811233138001626,74.601254133631301c-20.555125828922428-8.100840651042745-28.367037374014217-8.90396715640054-30.239980260971606-7.561473761485104l2.326373558255909,2.290821540367688c10.815446585771497,2.28637188562243,20.39065139561626,5.288441796083134,28.691536585881295,8.524625045403809,17.821265189008045,6.945060919142634,29.770270364997486,14.958482133677535,35.497301605882058,19.228947834737482l2.219690372548939-2.976882332281093c-5.832249296371629-3.659976687697053-20.608467421776368-12.455768396128406-38.494939949623586-19.506038326742782h.000018088026991Z" style="fill:#0fa2b9;"/><path d="M156.621742303143037,59.168603405221802c-.577894387956803-2.696825403776529-1.829983821840869-5.584796037286651-9.822667112941417-18.007965286002218-6.531640964491089-10.151615979553753-14.669534939697769-21.328615101358082-17.425625765308723-25.077496704814621l-1.816652945634814,1.544005325364196v.001480957243984c.096318745997451.114097015944935,5.31511259250874,6.285673184658663,11.984566237892068,16.366162518401325,4.695724269656239,7.094721257992205,10.104207259693794,16.135008833025495,14.95847308966313,26.335516750688839,1.63291476312952,1.157262950147924,2.699782796259569,1.533629580635534,2.121888408302766-1.161712604895001l.000018088026991.000009044013495Z" style="fill:#0fa2b9;"/><path d="M127.887228564118232,232.744760271423729c.028154014675238-8.426832125171131-.603081966135505-28.764141927933451-6.639816412460277-46.198667002730872-7.838573297503899-22.634055172109584-19.10744151056042-37.920011998163318-38.606063746062318-56.536978557274779-18.256906285340847-17.431558638301794-43.727069194348587-32.799011071883797-59.204166728128257-37.823693252164958l-1.057986811668343,3.203588623915493c.152622253340269.0503842003709,10.147170846816152,3.391776461165136,24.044704254333737,11.341473555108678,13.903461758503909,7.949706137957037,31.699530325319756,20.506233890813746,47.517437949690247,38.940954529682131l.014814094454778.017780530950404.020746967447849.023713403943475c12.283886915594849,13.860493649373893,19.984647532206509,28.992340481832798,24.624072816526677,43.374402401786938,4.637942066070536,14.376147134988059,6.20120887963003,28.003992575719167,6.199734705395713,38.709789539287158,0,1.849247571040905-.047417763875274,3.608109269076522-.131879807900077,5.270652221115597.847568788722128-.204485149952234,1.918895520611841-.349695834058366,3.218402718370271-.323034081646256v.000018088026991Z" style="fill:#0fa1b8;"/><path d="M171.611326799963535,108.843499869131847c-1.960380411493134-17.833112846965378-9.406280721794246-37.038356321772881-10.680600341374884-39.880392409655542-1.274319619579728-2.84203608788448-.881646632376942-3.528096879797886-3.135432936606776-3.934100743206727-33.608052362207673-4.310476417707832-55.361935076174632-3.70887766982014-88.283926646468899,4.522368614887455-26.999356400918259,6.749466034663783-43.77004182548535,15.010340508280933-48.934010860894887,17.766440377905383l1.578085430021019,2.89242028825538.002961914489788-.001483218247813c.059269943839354-.032594625407.863870623432376-.466761547504575,2.32786129851138-1.198756885045441l.203001931704421-.100759356728304c4.396417157974611-2.185612528894126,14.290201872714533-6.810223718757697,27.869150853331121-11.409638286429981,18.491019624203545-6.26789039270443,43.798195840160588-12.472065708832815,71.262821526322114-12.470591534596679h.016297312702591c12.34316138144186,0,23.689075547281391,1.050579764440045,34.027396145837884,2.782770666050055.820907036309109,1.948532753534892,1.615134232178207,3.928176914227151,2.372317147896865,5.937458307844281,6.913949511983446,18.336918674622211,9.394433063836004,37.47251419985696,9.392949845587282,54.933710071081805,0,12.501702941754047-1.26986996483538,24.139539782083375-3.064310812802432,33.975537771231757-2.132270936040186,11.69266165143199-6.221955847077879,24.655193267697541-12.344626511661772,37.552517545125738-5.454408491649701,11.495574504690012-12.525416345698432,22.937825504555803-21.236755054118476,33.428754790431412,1.249141085415431.490474951449869,2.0492830662497,1.29210015053286,2.920565258916213,2.256734652699379.343762961067114-.411936736401913.730521163305639-.887579505368194,1.167636433872758-1.437310834637174,1.901105945647032-2.397513770089063,20.698871382808647-27.039358073552648,28.76414192793527-53.63715122179201,3.273227529472024-10.15013276130594,5.999690166173423-33.461349415838413,6.479782589884962-42.860232134420585.508255482400273-10.015286516909327.305253550694943-19.9179660191312-.705324541112532-29.118287416738895l.000018088026991-.000009044013495Z" style="fill:#0fa7bf;"/><circle cx="125.437854158420805" cy="11.682283645699499" r="11.680800427452747" style="fill:#27a2d5;"/><path d="M125.437856419423952,2.865744969822117c4.86170000923812,0,8.816538675879201,3.954847710654576,8.816538675879201,8.816538675877382,0,4.861690965224625-3.954838666641081,8.816538675879201-8.816538675879201,8.816538675879201-4.861700009237211,0-8.816538675878292-3.954847710654576-8.816538675878292-8.816538675879201,0-4.861690965222806,3.954847710654576-8.816538675877382,8.816538675878292-8.816538675877382M125.437856419423952,0c-6.451628575209725,0-11.680804949458434,5.230652809486855-11.680804949458434,11.680802688455515,0,6.451633097216472,5.230650548483027,11.680804949459343,11.680804949458434,11.680804949459343,6.45163761922413,0,11.680795905445848-5.230652809486855,11.680795905445848-11.680802688455515S131.889475950620181.000002261003829,125.437847375410456.000002261003829l.000009044013495-.000002261003829Z" style="fill:url(#linear-gradient);"/><circle cx="236.053560167816613" cy="96.506271360683968" r="11.680800427452141" style="fill:#27a2d5;"/><path d="M236.053560167816613,87.689732684804767c4.86170000923812,0,8.816538675879201,3.954847710654576,8.816538675879201,8.816538675879201s-3.954838666641081,8.816538675879201-8.816538675879201,8.816538675879201c-4.861700009237211,0-8.816538675878292-3.954847710654576-8.816538675878292-8.816538675879201s3.954838666641081-8.816538675879201,8.816538675878292-8.816538675879201M236.053560167816613,84.823983192976812c-6.45163761922322,0-11.680795905444938,5.230650548483027-11.680795905444938,11.680804949459343,0,6.451628575208815,5.230659592497432,11.680804949457524,11.680795905444938,11.680804949457524,6.45163761922413,0,11.680795905444938-5.230650548483027,11.680795905444938-11.680804949457524,0-6.450154400976317-5.229176374248709-11.680804949459343-11.680795905444938-11.680804949459343Z" style="fill:url(#linear-gradient-2);"/><circle cx="172.381858679916149" cy="140.643796334190483" r="11.680797035946508" style="fill:#27a2d5;"/><path d="M172.381858679916149,131.828734093549429c4.861700009237211,0,8.816538675878292,3.954847710654576,8.816538675878292,8.816547719892696s-3.954838666641081,8.816538675879201-8.816538675878292,8.816538675879201c-4.86170000923812,0-8.816538675879201-3.954838666641081-8.816538675879201-8.816538675879201s3.954838666641081-8.816538675879201,8.816538675879201-8.816538675879201M172.381858679916149,128.962993645734969c-6.45163761922413,0-11.680795905444938,5.230650548483027-11.680795905444938,11.680804949459343,0,6.45163761922413,5.230659592496522,11.680795905444029,11.680795905444938,11.680795905444029,6.45163761922322,0,11.680795905444938-5.230659592496522,11.680795905444938-11.680795905444029,0-6.451628575210634-5.229176374248709-11.680804949459343-11.680795905444938-11.680804949459343Z" style="fill:url(#linear-gradient-3);"/><circle cx="126.807020610767722" cy="246.791958539800817" r="15.303732834998073" style="fill:#27a2d5;"/><path d="M126.807020610767722,234.353961630609774c6.859115656868198,0,12.439471083424905,5.580355426556707,12.439471083424905,12.437978821162687,0,6.859124700882603-5.580355426556707,12.439462039412319-12.439471083424905,12.439462039412319s-12.439471083424905-5.580355426556707-12.439471083424905-12.439462039412319c0-6.859106612853793,5.580346382543212-12.437978821162687,12.439471083424905-12.437978821162687M126.807020610767722,231.488221182795314c-8.452019703350743,0-15.303728312991552,6.851708609641719-15.303728312991552,15.303737357005957s6.851708609640809,15.303737357004138,15.303737357005048,15.303737357004138,15.303737357005048-6.8517086096399,15.303737357005048-15.303737357004138-6.851708609640809-15.303737357005957-15.303737357005048-15.303737357005957h-.000009044013495Z" style="fill:url(#linear-gradient-4);"/><circle cx="17.975366138590289" cy="88.304671352912919" r="15.303730573994471" style="fill:#27a2d5;"/><path d="M17.975366138590289,75.865200269487104c6.859120178874946,0,12.439471083424905,5.580346382543212,12.439471083424905,12.439471083425815s-5.58035090454996,12.439471083425815-12.439471083424905,12.439471083425815-12.439468822421986-5.580346382543212-12.439468822421986-12.439471083425815,5.58035090454996-12.439471083425815,12.439468822421986-12.439471083425815M17.975366138590289,73.000933995906962c-8.452024225357491,0-15.3037328349983,6.851708609641719-15.3037328349983,15.303728312992462s6.851710870644638,15.303737357004138,15.3037328349983,15.303737357004138c8.452019703350743,0,15.3037328349983-6.8517086096399,15.3037328349983-15.303737357004138s-6.851708609640809-15.303737357005957-15.3037328349983-15.303737357005957v.000009044013495Z" style="fill:url(#linear-gradient-5);"/><path d="M21.463456823747038,65.466131030851102l1.647728857584298-.549740373282475-1.647728857584298.549740373282475c3.095417697953053.475651812979777,6.066371679247823,1.579564126261175,8.718741233639776,3.240632904065933l-.088907176763314-.73643594827081.088907176763314.73643594827081c8.566118980299507-13.1492362352692,19.955010299283458-24.563324176444439,33.093873050827824-33.141295336708936,13.201094609874417-8.617981876912381,28.282566285975008-14.426526813353121,43.83968073104279-16.914417412432158,0,0-.905360036321326-.1822572252604-1.016492876773555-.1822572252604.111132840452228,0,1.016492876773555.1822572252604,1.016492876773555.1822572252604-.769039617690396-2.124859366806049-1.167636433873668-4.381598541513085-1.167636433873668-6.67834391085853,0-.798674589610528.047417763875274-1.592904046483454.142253291624002-2.376762280635376l-.631235980810743.631233719808733.631235980810743-.631233719808733c-17.493790496630027,2.730903247433162-34.393389292600659,9.333677640745009-49.10885877792407,19.220053047254623-14.214630094164932,9.548534013418248-26.41553818398279,22.153962748398044-35.518057617343402,36.650123945299129l.000004522006748.000009044015314Z" style="fill:#00a094;"/><path d="M56.984476355580227,28.814519345294684c14.71546948532341-9.884894449263811,31.615068281294043-16.489149799821462,49.108867821937565-19.220055308256633l3.74887934245362-3.411037949363163c-39.976702111640407,4.830575036059599-74.135978065377458,28.530019545058167-93.313058481495318,61.932103539063974l4.934296307277691-2.650890858150888c9.102519433360612-14.494687022666767,21.30342752317847-27.100115757646563,35.521015009826442-36.650128467306786v.000009044013495Z" style="fill:#04aa9f;"/><path d="M63.27755432646336,35.563989901966124c-13.138862751545275,8.577975682272154-24.527758592535974,19.993537797681711-33.093877572835481,33.141299858716593l.788303366890432,4.116364751478613c17.126309609611781-27.963986381080758,46.383883881478141-47.696735521465598,80.445357870970838-51.885701092989621l-4.300102933983908-2.286371885624249c-15.557114445067782,2.487895121086694-30.638586121168373,8.296435535521596-43.839680731041881,16.914417412432158v-.000009044013495Z" style="fill:#008a80;"/><path d="M11.960857355955341,130.272874327218233c0,27.125303335826175,9.751535945122669,53.354136900805315,27.45870185718195,73.85443791862599,16.795877524752541,19.445280642648868,39.690716832151338,32.596000096165881,64.763779709244773,37.273961922897797l3.70887766982014-2.271548747154156c-52.722900919995482-8.223830193466711-93.065605222412159-53.82385584079384-93.065605222412159-108.855358832108323,0-7.508132168630254.751259086739083-14.844382856726952,2.184129310646313-21.928730630996142l-3.381402977442121,2.479000333603835c-1.106883271784682,6.386430280383138-1.668473564029227,12.913639678157779-1.668473564029227,19.448247079144494l-.000006783009667-.000009044013495Z" style="fill:#1ab2a7;"/><path d="M39.41955921313729,204.127312245844223c-17.707165912059281-20.500301017820675-27.45870185718195-46.729134582799816-27.45870185718195-73.854446962639486,0-6.534607400986715.560109334998742-13.061816798761356,1.668473564028318-19.448247079144494l-1.260986482370754,1.293583368778854,1.260986482370754-1.293583368778854c-3.093939001711988-.588258827667232-6.011544607142241-1.801829807167451-8.598718127712345-3.568107596443951l.773484750427997,2.68941835654914-.773484750427997-2.68941835654914c-1.43731761764866,7.561473761483285-2.164867822450105,15.281507171308476-2.164867822450105,23.016354675588445,0,29.688765713453904,10.77988552386887,58.307696957283042,30.35556727817584,80.583156985841924,18.431754202370939,20.975961874815766,43.392182932736432,34.975733335302721,70.676036872889199,39.732215289053784l-3.098379612442841-2.093743437641024,3.098379612442841,2.093743437641024c-.213375415429255-1.274319619580638-.320058601136225-2.569386206607305-.320058601136225-3.877801757869747,0-1.803322069428759.203001931704421-3.579964298416598.607522576866359-5.310662937763482l-2.627177454206503,1.434362486168538,2.627177454206503-1.434362486168538c-25.07305383307903-4.676478608484103-47.969385402740045-17.827179973974125-64.76525388347909-37.272478704649984v.000018088026991Z" style="fill:#00a094;"/><path d="M33.221312247997048,210.856040357075472C13.647113711937891,188.58058032851477,2.865747230825036,159.961649084687451,2.865747230825036,130.272874327218233c0-7.734847504279969.727550204801446-15.454871870091665,2.164867822450105-23.016354675588445l-1.809243637404506-5.313629374260927c-2.104114660362029,9.10103621511189-3.221371415870635,18.587338370201905-3.221371415870635,28.329984049849372,0,63.204948984410294,46.911394069064954,115.45219809142327,107.812195158907343,123.825688623741371l-3.914836994007601-3.510307304830349c-27.283853940152767-4.756481953751063-52.244287192525007-18.756253414239836-70.676041394895947-39.732215289053784h-.000004522006748Z" style="fill:#008279;"/><path d="M198.678847932204917,32.856791014464761c15.314101796715477,11.602266734413206,27.732834956706029,26.704476333947241,36.130020804941523,43.884141102435024l4.602390048182315,3.101346048939376C222.130843704127074,40.702771359197868,185.359204390637387,12.09718003558919,141.399491509653672,6.337536081271537l3.71924210952966,3.449563186757587c19.388972613298392,3.219888197621913,37.828142906910216,11.150328325376904,53.560096224993686,23.069696268443295l.0000180880279-.000004522007657Z" style="fill:#1ab2a7;"/><path d="M234.12577438172957,76.311214849545649c.154109993595739.091869091251283.68309435541687.429717267354135.68309435541687.429717267354135-8.397203936262486-17.179655724474287-20.815919008226047-32.281865324008322-36.130020804941523-43.884136580427366-15.733454624359183-11.919367943066391-34.171123611696203-19.849808070821382-53.561579443242408-23.069696268443295l1.22246124497542,1.511406177949539-1.22246124497542-1.511406177949539c.08002143329486.721621853816032.120032149941835,1.450653015861462.120032149941835,2.184131571650141,0,2.366388796910542-.420817957864529,4.686843048193623-1.234308902933662,6.863563050608718l1.329144430682391-.441567186315297-1.329144430682391.441567186315297c17.489349885900083,2.969470763046047,34.163707520455318,10.090862817465677,48.443553997473828,20.724054438980602,14.144982144593996,10.532432264784802,25.707247206372813,24.314387699112558,33.605094969724632,40.009305781059084l.407487081657564-1.102438139047081-.407487081657564,1.102438139047081c2.643474766910003-1.621058061156873,5.639629892402809-2.593099610552599,8.75726421003219-2.828705211677516,0,.001483218249632-.528984361821131-.334881739603588-.68309435541687-.428234049104503h-.000036176054891Z" style="fill:#00a094;"/><path d="M238.034687546757596,130.272874327218233c0-4.786119186674114-.302287114198407-9.58706151181832-.899427163328255-14.316872669141958l-3.325085904078151-3.031707143381936c.893512378363084,5.65147755036196,1.358790707619846,11.445199348334427,1.358790707619846,17.348579812523894,0,53.760140764215976-38.503821171086202,98.527411717275754-89.432290287128126,108.225597025531897l3.784449448369742,2.147085030494054c51.485616536551788-11.374077224529174,88.513599374599835-57.267490676564194,88.513599374599835-110.372691100039447l-.000036176054891.000009044013495Z" style="fill:#00897f;"/><path d="M248.070721031114772,108.275988008912464l-2.087810564647953,5.149154940954759c.766082225207356,5.550718193633656,1.15282233941798,11.197746089250359,1.15282233941798,16.847740421364506,0,14.761404030950871-2.603464050263028,29.187926322296335-7.739288115010822,42.880979101866615-4.960967103704206,13.22925766856315-12.141624579957352,25.419792274657084-21.341955021577633,36.230789205683323-17.59454985335924,20.673674760617359-41.588878951335573,34.92239174244969-67.945142669471352,40.439023048415038l-3.800746761072332,3.640703894483522c58.884108126992032-10.110122044658056,103.691389796697877-61.417933271697621,103.691389796697877-123.190012032200684.002966436496536-7.509615386878068-.656432603002941-14.857722776947412-1.929269004335765-21.998378580567078Z" style="fill:#0bada1;"/><path d="M238.385866599065594,117.273298430800423l-1.249141085415431-1.318779990971962c.597158137156839,4.729811157323638.899427163328255,9.530753482467844.899427163328255,14.316872669141958,0,53.105191379459939-37.029466056296769,98.998604831496777-88.513599374599835,110.372682056025951l2.579768734345635,1.683289919486924-2.579768734345635-1.683289919486924c.528984361820221,1.964830066237482.794227195868189,3.994849383288965.794227195868189,6.066362635234327,0,1.046139153710101-.068155687308717,2.084844128152326-.205968368200956,3.111719532662391,0,0,1.484737642525943-2.388614460598546,1.635881199626056-2.690901574796953-.151143557100113.30377033244622-1.635881199626056,2.690901574796953-1.635881199626056,2.690901574796953,26.356263718135779-5.516631305965348,50.350574728085121-19.763865069549865,67.945142669471352-40.439023048413219,9.20031235359329-10.810996931026239,16.380987917873426-23.000048318872359,21.341955021577633-36.230789205683323,5.135824064747794-13.693052779572099,7.739288115010822-28.119575070917563,7.739288115010822-42.880979101868434,0-5.649994332112328-.386740114210625-11.298505445978662-1.15282233941798-16.847740421364506l-1.564759075820803,3.849638699182833,1.564759075820803-3.849638699182833c-2.684968701805701,1.527705751657777-5.701852706719365,2.39898794432338-8.847650083037479,2.530867752224367l1.249141085415431,1.318807123012448Z" style="fill:#00a094;"/><path d="M109.842214475957917,6.183430609682546l-3.74887934245362,3.411037949361344c-.094835527748728.783855973149912-.142253291624002,1.578085430021019-.142253291624002,2.376760019631547,0,2.296745369347263.398596816183272,4.553482283048652,1.167636433872758,6.67834391085853l4.300102933983908,2.28637188562243c-1.650695294080833-2.590135435058983-2.601989876027801-5.667774863064551-2.601989876027801-8.963234839236975-.001483218248723-2.035954451046564.3600693177832-3.984482682573798,1.025383142248756-5.789278926236875Z" style="fill:#008178;"/><path d="M21.463456823747038,65.466131030851102l-4.934296307277691,2.650890858150888c.475647290973939-.034077843654813.957222932933291-.051858374607036,1.444726925879877-.051858374607036,4.958005189214418,0,9.490747287826707,1.788498930960486,12.998097200175835,4.756481953751063l-.788303366889522-4.116364751476794c-2.653852772640676-1.661068777804758-5.623323535687632-2.763506916851838-8.720224451888498-3.23914968581812Z" style="fill:#008178;"/><path d="M13.629333180986578,110.824627248073739l3.381402977443031-2.479000333603835c-5.43958083117468-.257826742807083-10.310164322878336-2.665704952605665-13.789362481555145-6.40125341885323l1.809243637403597,5.313629374260927c2.587173520570104,1.764785527015192,5.504781387004186,2.976882332281093,8.598718127712345,3.566624378196138h-.000002261003829Z" style="fill:#008178;"/><path d="M104.184813096616381,241.40127416874202c-.403037426913215,1.730716727375693-.607522576866359,3.507358956363532-.607522576866359,5.310662937763482,0,1.308397463235451.10668318570697,2.601998920043116.320058601136225,3.877801757871566l3.914836994007601,3.510307304832168c-.88313889463916-2.292295714602005-1.369155147329366-4.786128230689428-1.369155147329366-7.388109062703734,0-2.676087480342176.515653485614166-5.238057595710416,1.450650754858543-7.582229772944629l-3.708868625806645,2.271566835181147Z" style="fill:#008178;"/><path d="M245.982910466466819,113.425142949867222l2.087810564647953-5.149154940954759c-3.02578331440327,2.985772597756295-7.186590349245307,4.832053732301574-11.772664996697131,4.832053732301574-.843119133978689,0-1.672925479777405-.063715076577864-2.487899643093442-.183738182506204l3.325085904078151,3.031707143381936c3.147280594565927-.131879807899168,6.164164599479591-1.00316200056659,8.847650083036569-2.530867752222548h.0000180880279Z" style="fill:#008178;"/><path d="M150.316798586274672,246.711937106505502c0-2.071513251945362-.26672605229669-4.101550657022017-.794227195869098-6.066362635232508l-3.784449448369742-2.147085030495873c1.100963964812763,2.510111740761204,1.714401326645202,5.289915970315633,1.714401326645202,8.213465753757191,0,2.366384274902884-.401554208665402,4.636467891836219-1.140956593432747,6.750958296925091l3.800746761073242-3.640703894483522c.134846244395703-1.025392186262252.204485149953143-2.064115248731468.204485149953143-3.110236314414578v-.000036176055801Z" style="fill:#008178;"/><path d="M145.238765769125166,11.971228578675436c0-.73347629478485-.040010716646975-1.462507456830281-.120032149941835-2.184131571650141l-3.71924210952966-3.449563186757587c.631235980810743,1.758861698037435.974998941877857,3.657012512205256.974998941877857,5.633694758407728,0,3.359175052750288-.985381469615277,6.487194159119099-2.693868011294398,9.106964566099123l4.325281468148205-2.243401515490405c.812007726820411-2.176722263417105,1.23282568468494-4.495693296454192,1.23282568468494-6.863563050608718h.000036176054891Z" style="fill:#008178;"/><path d="M226.05160452711425,79.569628284561986l-1.066868033130959,4.37567471253351c2.979839724763224-2.727936810933898,6.958391795348689-4.396412635966044,11.31331954043435-4.396412635966044,1.065384814882236,0,2.10262465910273.097792920230859,3.111719532662391.291904586460078l-4.602390048182315-3.101346048939376c-3.11616918740765.237079775359234-6.112306224873464,1.20912132475496-8.755780991783467,2.830179385911833Z" style="fill:#008178;"/><path d="M224.984736493983291,83.946786215345128l1.066868033130959-4.37567471253351c-7.896364545103097-15.696401300196158-19.460094737103645-29.476873516274281-33.605094969724632-40.009305781060903-14.279828388990609-10.633191621513106-30.954204111573745-17.756066894182368-48.443535909445927-20.724052177976773l-4.325281468148205,2.243401515490405c37.943725402106793,5.046912365976823,69.775126491312221,29.405746870461371,85.307044314187806,62.865631156080781Z" style="fill:#008379;"/></svg>