<svg xmlns="http://www.w3.org/2000/svg" xml:space="preserve" id="Layer_1" x="0" y="0" version="1.1" viewBox="0 0 512 512"><style>.st0{fill:#24292e}</style><g id="Group-Copy" transform="translate(70 21)"><path id="Shape" d="m10.3 59.8 3.9 372.4c-31.4 3.9-54.9-11.8-54.9-43.1l-3.9-309.7c0-98 90.2-121.5 145.1-82.3l278.3 160.7c39.2 27.4 47 78.4 27.4 113.7-3.9-27.4-15.7-43.1-39.2-58.8L53.4 36.2C29.9 20.6 10.3 24.5 10.3 59.8" class="st0"/><path id="Shape_00000114049535938561773820000018271523940913105341_" d="M-13.2 451.8c23.5 7.8 47 3.9 66.6-7.8l321.5-188.2c19.6 27.4 15.7 54.9-7.8 70.6L96.5 483.2c-39.2 19.6-90.1 0-109.7-31.4" class="st0"/><path id="Shape_00000165935924413286433040000003668002807793862576_" d="M80.9 342 273 232.3 84.8 126.4z" style="fill:#ffc230"/></g></svg>